<svg width="40" height="38" viewBox="0 0 40 38" fill="none" xmlns="http://www.w3.org/2000/svg">
<path d="M17.0408 15.8436C17.2597 16.1767 17.6232 16.3574 17.994 16.3574C18.2087 16.3574 18.4258 16.2968 18.6187 16.1701L19.3221 15.7078L20.0256 16.1701C20.2184 16.2968 20.4355 16.3574 20.6502 16.3574C21.021 16.3574 21.3845 16.1767 21.6034 15.8436C21.9246 15.3549 21.8204 14.7105 21.3819 14.3445C21.8204 13.9785 21.9246 13.3342 21.6034 12.8454C21.2578 12.3196 20.5516 12.1733 20.0257 12.5189L19.3222 12.9812L18.6187 12.5189C18.0927 12.1732 17.3864 12.3196 17.041 12.8454C16.7198 13.3341 16.824 13.9785 17.2625 14.3445C16.8238 14.7104 16.7197 15.3548 17.0408 15.8436Z" fill="#9F0E40"/>
<path d="M9.75335 29.0134L8.91302 29.062L8.53493 28.3099C8.25231 27.7478 7.56738 27.5212 7.00534 27.8037C6.48279 28.0664 6.25083 28.6766 6.44755 29.2127C5.88482 29.3104 5.47248 29.8164 5.5062 30.4002C5.54121 31.006 6.04348 31.4737 6.64251 31.4737C6.66469 31.4737 6.68695 31.4731 6.70935 31.4718L7.54976 31.4232L7.92785 32.1753C8.12798 32.5733 8.52961 32.8031 8.94666 32.8031C9.11869 32.8031 9.29331 32.764 9.45751 32.6814C9.98006 32.4187 10.212 31.8086 10.0153 31.2724C10.578 31.1748 10.9904 30.6688 10.9566 30.0849C10.9203 29.4569 10.382 28.9776 9.75335 29.0134Z" fill="#9F0E40"/>
<path d="M34.7443 18.5959C37.8359 15.3219 39.3722 10.9014 38.9685 6.39466C38.9194 5.84568 38.4844 5.41071 37.9354 5.36157C34.9652 5.09551 31.9527 5.69006 29.3196 7.04359C27.9269 3.00805 24.0907 0.101074 19.588 0.101074C13.9133 0.101074 9.29656 4.7178 9.29656 10.3925C9.29656 12.7737 10.1098 14.9684 11.4726 16.7141C7.56926 16.3252 3.60998 18.1952 1.52465 21.8072C-1.31261 26.7215 0.377244 33.0281 5.2917 35.8655C6.90848 36.7989 8.67512 37.2422 10.4201 37.2422C13.9794 37.2422 17.4461 35.3962 19.3501 32.0985C19.4334 31.9542 19.5124 31.8086 19.588 31.6619C19.6636 31.8085 19.7427 31.9542 19.826 32.0985C21.7301 35.3965 25.1963 37.2422 28.7559 37.2422C30.5006 37.2422 32.2679 36.7987 33.8843 35.8655C38.7988 33.0281 40.4886 26.7215 37.6513 21.807C36.897 20.5006 35.8976 19.4221 34.7443 18.5959ZM36.7514 7.57951C36.8133 11.2174 35.4081 14.7194 32.8162 17.3113C32.7697 17.3577 32.722 17.403 32.6747 17.4489C31.1132 16.8042 29.4031 16.5447 27.7035 16.714C29.0663 14.9683 29.8795 12.7736 29.8795 10.3924C29.8795 10.0438 29.8619 9.6994 29.8278 9.35974C31.9183 8.15978 34.3297 7.54191 36.7514 7.57951ZM19.5881 2.37955C24.0064 2.37955 27.601 5.97412 27.601 10.3925C27.601 14.8108 24.0064 18.4054 19.5881 18.4054C15.1698 18.4054 11.5752 14.8108 11.5752 10.3925C11.5752 5.97412 15.1698 2.37955 19.5881 2.37955ZM20.6173 20.6326C20.2223 21.1414 19.8782 21.6834 19.588 22.2503C19.2978 21.6834 18.9537 21.1415 18.5587 20.6326C18.8973 20.6664 19.2407 20.6839 19.588 20.6839C19.9354 20.6839 20.2787 20.6664 20.6173 20.6326ZM17.3768 30.9593C15.1676 34.7856 10.2573 36.1014 6.4309 33.8922C2.60453 31.683 1.28882 26.7727 3.49795 22.9464C4.98053 20.3785 7.67932 18.9415 10.4508 18.9415C11.8092 18.9415 13.1852 19.2869 14.4438 20.0135C18.2703 22.2226 19.586 27.1329 17.3768 30.9593ZM32.7451 33.8922C31.4863 34.619 30.1108 34.9643 28.7522 34.9641C25.981 34.964 23.2818 33.5268 21.7994 30.9593C19.5902 27.1329 20.9059 22.2225 24.7323 20.0134C28.5586 17.8043 33.469 19.1199 35.6782 22.9464C37.8872 26.7727 36.5715 31.683 32.7451 33.8922Z" fill="#9F0E40"/>
<path d="M32.7291 29.2127C32.9259 28.6766 32.6939 28.0664 32.1714 27.8037C31.6093 27.5212 30.9244 27.7478 30.6418 28.3099L30.2637 29.062L29.4233 29.0134C28.7952 28.9774 28.2566 29.4569 28.2202 30.085C28.1865 30.6688 28.5988 31.1748 29.1615 31.2725C28.9647 31.8086 29.1968 32.4188 29.7193 32.6815C29.8835 32.764 30.0581 32.8032 30.2302 32.8032C30.6472 32.8032 31.0489 32.5733 31.249 32.1753L31.6271 31.4233L32.4675 31.4719C32.4899 31.4732 32.5121 31.4738 32.5343 31.4738C33.1334 31.4738 33.6356 31.006 33.6706 30.4003C33.7043 29.8164 33.2919 29.3104 32.7291 29.2127Z" fill="#9F0E40"/>
</svg>
