<svg width="63" height="65" viewBox="0 0 63 65" fill="none" xmlns="http://www.w3.org/2000/svg">
<path d="M62.4845 63.3628C59.3481 53.2233 51.122 45.65 40.4598 43.0339C38.594 40.9605 37.9537 39.6049 37.7411 38.9521C38.739 37.3989 41.9429 32.2542 43.9238 27.4645H44.5266C47.7005 27.4645 50.009 25.6337 50.009 22.4624C50.009 21.4819 49.7164 20.6491 49.2486 19.9412C48.9885 10.0344 42.3281 0 31.3083 0C20.2384 0 14.2408 9.48666 13.7481 19.266C12.9577 20.0838 12.4575 21.1518 12.4575 22.4624C12.4575 24.8959 13.8231 26.5291 15.8865 27.1619C17.6598 30.2508 21.3914 33.8148 29.0948 34.3151C29.485 34.9303 30.1403 35.3605 30.9206 35.3605C32.1386 35.3605 33.1291 34.3701 33.1291 33.152C33.1291 31.9315 32.1386 30.9436 30.9206 30.9436C30.2103 30.9436 29.6075 31.3037 29.2024 31.8265C26.3611 31.6364 24.1802 30.9836 22.4844 30.1082C21.0713 26.9693 19.8783 23.7454 19.7382 21.642C23.4073 20.1563 34.1045 15.6519 37.8712 12.1578C37.8712 12.1578 39.4544 17.7653 42.9859 19.9488C43.0209 20.3764 43.0409 20.8066 43.0409 21.2343C43.0409 25.4262 37.491 34.7803 35.3526 38.0292C35.1875 38.2818 35.1175 38.5894 35.16 38.8896C35.3025 39.905 36.0429 42.0885 39.3493 45.515C39.0267 47.2482 37.531 52.4405 31.2157 52.468C24.883 52.438 22.9896 47.2682 22.5244 45.4749C22.607 45.4549 22.682 45.4224 22.767 45.4049L22.7295 45.2498C26.4887 41.2831 26.7413 39.2172 26.7138 38.657C26.7063 38.4569 26.6512 38.2618 26.5512 38.0867C26.2461 37.5565 25.8559 36.8537 25.4257 36.0533C24.2277 35.7607 23.1122 35.398 22.0492 34.9929C22.9746 36.8162 23.7725 38.2643 24.1551 38.9371C23.9876 39.4798 23.3598 40.9029 21.1463 43.2865C10.5217 46.1628 2.46563 53.7686 0.0370637 63.4178C-0.0554769 63.7905 0.0270595 64.1882 0.264664 64.4933C0.502268 64.8034 0.867428 64.981 1.2526 64.981H61.2889C61.6866 64.981 62.0618 64.7934 62.2944 64.4733C62.532 64.1531 62.5995 63.7405 62.4845 63.3628ZM31.3108 2.5011C40.7774 2.5011 45.6121 10.8097 46.58 17.9179C46.1273 17.7528 45.6471 17.6402 45.1518 17.5627C43.8263 11.1974 39.0792 5.4624 31.3158 5.4624C23.6374 5.4624 18.9354 11.1724 17.6098 17.5227C17.1946 17.5702 16.7869 17.6402 16.3967 17.7503C17.3021 10.8047 21.5915 2.5011 31.3108 2.5011ZM2.91583 62.4799C5.39691 54.9441 11.7772 48.969 20.1259 46.1978C21.0088 49.6518 24.1276 54.9766 31.1482 54.9766C31.1557 54.9766 31.1607 54.9766 31.1682 54.9766H31.2157C31.2182 54.9766 31.2232 54.9766 31.2257 54.9766H31.2733C31.2783 54.9766 31.2833 54.9741 31.2883 54.9741C38.4214 54.9391 41.1901 49.5192 41.8104 46.0402C50.094 48.6714 56.5569 54.6165 59.5407 62.4799H2.91583Z" fill="white"/>
</svg>
