<svg width="23" height="23" viewBox="0 0 23 23" fill="none" xmlns="http://www.w3.org/2000/svg">
<path fill-rule="evenodd" clip-rule="evenodd" d="M0.25 4.75C0.25 3.55653 0.724106 2.41193 1.56802 1.56802C2.41193 0.724106 3.55653 0.25 4.75 0.25H18.25C19.4435 0.25 20.5881 0.724106 21.432 1.56802C22.2759 2.41193 22.75 3.55653 22.75 4.75V18.25C22.75 19.4435 22.2759 20.5881 21.432 21.432C20.5881 22.2759 19.4435 22.75 18.25 22.75H4.75C3.55653 22.75 2.41193 22.2759 1.56802 21.432C0.724106 20.5881 0.25 19.4435 0.25 18.25V4.75ZM4.75 2.5C4.15326 2.5 3.58097 2.73705 3.15901 3.15901C2.73705 3.58097 2.5 4.15326 2.5 4.75V18.25C2.5 18.8467 2.73705 19.419 3.15901 19.841C3.58097 20.2629 4.15326 20.5 4.75 20.5H11.5V12.625H10.375C10.0766 12.625 9.79048 12.5065 9.5795 12.2955C9.36853 12.0845 9.25 11.7984 9.25 11.5C9.25 11.2016 9.36853 10.9155 9.5795 10.7045C9.79048 10.4935 10.0766 10.375 10.375 10.375H11.5V8.6875C11.5 7.64321 11.9148 6.64169 12.6533 5.90327C13.3917 5.16484 14.3932 4.75 15.4375 4.75H16.1125C16.4109 4.75 16.697 4.86853 16.908 5.0795C17.119 5.29048 17.2375 5.57663 17.2375 5.875C17.2375 6.17337 17.119 6.45952 16.908 6.6705C16.697 6.88147 16.4109 7 16.1125 7H15.4375C15.2159 7 14.9965 7.04365 14.7917 7.12845C14.587 7.21326 14.401 7.33756 14.2443 7.49426C14.0876 7.65096 13.9633 7.83698 13.8785 8.04172C13.7936 8.24646 13.75 8.46589 13.75 8.6875V10.375H16.1125C16.4109 10.375 16.697 10.4935 16.908 10.7045C17.119 10.9155 17.2375 11.2016 17.2375 11.5C17.2375 11.7984 17.119 12.0845 16.908 12.2955C16.697 12.5065 16.4109 12.625 16.1125 12.625H13.75V20.5H18.25C18.8467 20.5 19.419 20.2629 19.841 19.841C20.2629 19.419 20.5 18.8467 20.5 18.25V4.75C20.5 4.15326 20.2629 3.58097 19.841 3.15901C19.419 2.73705 18.8467 2.5 18.25 2.5H4.75Z" fill="#333333"/>
</svg>
