<svg width="50" height="50" viewBox="0 0 50 50" fill="none" xmlns="http://www.w3.org/2000/svg">
<rect opacity="0.2" x="0.4375" y="0.625" width="48.75" height="48.75" rx="3" fill="#BDBDBD"/>
<path fill-rule="evenodd" clip-rule="evenodd" d="M34.5671 15.3003C33.3001 14.025 31.7927 13.0138 30.1321 12.3253C28.4716 11.6367 26.6909 11.2845 24.8932 11.2891C17.3553 11.2891 11.2189 17.424 11.2158 24.965C11.2158 27.3751 11.845 29.7273 13.0409 31.8022L11.1016 38.8877L18.3516 36.9849C20.357 38.0766 22.6038 38.649 24.8871 38.65H24.8932C32.4297 38.65 38.5661 32.5152 38.5691 24.9741C38.5743 23.1772 38.2233 21.3971 37.5364 19.7367C36.8494 18.0762 35.8402 16.5684 34.5671 15.3003ZM24.8932 36.342H24.8887C22.8526 36.3422 20.854 35.7945 19.1027 34.7561L18.6883 34.5093L14.3861 35.6382L15.5332 31.4442L15.2636 31.0146C14.1253 29.2023 13.5227 27.1051 13.5254 24.965C13.5284 18.6976 18.6273 13.5986 24.8978 13.5986C26.3912 13.5953 27.8703 13.8882 29.2497 14.4604C30.6291 15.0325 31.8814 15.8726 32.9339 16.9319C33.9922 17.9862 34.8309 19.2398 35.4017 20.6202C35.9726 22.0005 36.2641 23.4804 36.2596 24.9741C36.2566 31.2416 31.1576 36.342 24.8932 36.342ZM31.1287 27.8275C30.7859 27.6554 29.1071 26.8297 28.7932 26.7154C28.4809 26.6012 28.2539 26.5448 28.0254 26.8861C27.7969 27.2273 27.1418 27.9966 26.9423 28.2252C26.7427 28.4537 26.5431 28.4811 26.2019 28.3105C25.8606 28.1398 24.7592 27.7788 23.4536 26.6149C22.4375 25.7084 21.7519 24.5902 21.5523 24.2475C21.3528 23.9047 21.531 23.7204 21.7032 23.5497C21.857 23.3974 22.0444 23.1506 22.215 22.951C22.3857 22.7514 22.442 22.6098 22.5563 22.3813C22.6705 22.1527 22.6142 21.9532 22.5273 21.7825C22.442 21.6104 21.758 19.9285 21.4731 19.2445C21.1974 18.5818 20.9155 18.6702 20.7053 18.661C20.4876 18.6521 20.2697 18.648 20.0518 18.6488C19.8785 18.6532 19.708 18.6934 19.5509 18.7668C19.3939 18.8402 19.2537 18.9453 19.1392 19.0754C18.8254 19.4182 17.9433 20.2439 17.9433 21.9257C17.9433 23.6076 19.1682 25.2331 19.3388 25.4616C19.5094 25.6902 21.7489 29.1407 25.1766 30.6215C25.9932 30.9734 26.63 31.1837 27.1251 31.3421C27.9432 31.6026 28.6881 31.5645 29.2777 31.4777C29.9343 31.3802 31.2993 30.652 31.5842 29.8537C31.8691 29.0554 31.8691 28.3714 31.7837 28.2282C31.6984 28.085 31.4684 27.9982 31.1287 27.8275Z" fill="#BDBDBD"/>
</svg>
