<svg width="64" height="79" viewBox="0 0 64 79" fill="none" xmlns="http://www.w3.org/2000/svg">
<path d="M25.0362 31.8086H1.20948C0.483792 31.8086 0 32.2924 0 33.0181C0 37.6141 0 45.7176 0 49.467C0 56.2401 5.20076 61.9246 11.8529 62.5294V76.1965H9.0711C8.34541 76.1965 7.86162 76.6803 7.86162 77.406C7.86162 78.1317 8.34541 78.6155 9.0711 78.6155H17.1746C17.9003 78.6155 18.3841 78.1317 18.3841 77.406C18.3841 76.6803 17.9003 76.1965 17.1746 76.1965H14.3928V62.4084C21.0449 61.8037 26.2457 56.1191 26.2457 49.3461V33.0181C26.2457 32.2924 25.7619 31.8086 25.0362 31.8086ZM23.8268 34.2276V41.6054C22.9801 41.9682 22.2544 42.573 21.6497 43.0568C19.4726 44.871 17.6584 44.871 15.4813 43.0568C12.4576 40.5168 9.31299 40.3959 6.16835 43.0568C5.07982 44.0243 4.23318 44.6291 2.41896 44.3872V34.2276H23.8268ZM13.1833 60.1104C7.25688 60.1104 2.53991 55.2725 2.53991 49.467V46.8061C4.95887 47.048 6.16835 46.3223 7.86162 44.9919C12.6995 41.0006 13.6671 46.9271 18.7469 46.9271C21.1659 46.9271 22.3754 45.8386 23.343 44.9919C23.5849 44.871 23.7058 44.6291 23.9477 44.5081V49.467C23.8268 55.2725 18.9888 60.1104 13.1833 60.1104Z" fill="white"/>
<path d="M62.893 28.9066L43.6623 9.67584C40.8805 6.89403 36.4054 10.2806 34.7121 8.70825L26.3667 0.362844C25.8829 -0.120948 25.1573 -0.120948 24.6735 0.362844L20.6822 4.35413C20.1984 4.83792 20.1984 5.56361 20.6822 6.0474L29.0276 14.3928C29.3904 14.7557 29.5114 15.2394 29.5114 15.7232L28.9066 19.8355C28.5438 22.7382 31.0837 23.9477 32.5351 25.7619L49.3468 42.5737C50.0725 43.2994 51.1611 43.7832 52.1286 43.7832C53.2172 43.7832 54.1848 43.4203 54.9105 42.5737L62.7721 34.7121C63.4978 33.9864 63.9816 32.8979 63.9816 31.9303C64.1025 30.7208 63.6187 29.6323 62.893 28.9066ZM31.3256 20.1983L31.9303 16.0861C32.0513 14.8766 31.6884 13.5462 30.8418 12.6995L23.343 5.20076L25.641 2.90275L33.1398 10.4015C35.9216 13.1833 40.5176 9.79679 42.09 11.3691L53.4591 22.7382L33.9865 23.5849L31.9303 21.5287C31.3256 21.1659 31.2047 20.6821 31.3256 20.1983ZM61.1997 32.8979L53.3381 40.7595C52.7334 41.3642 51.6449 41.3642 51.0401 40.7595L36.1635 25.8829L55.6361 25.0362L61.1997 30.5998C61.4416 30.8417 61.6835 31.3255 61.6835 31.6884C61.6835 32.1722 61.4416 32.535 61.1997 32.8979Z" fill="white"/>
<path d="M16.0862 28.0597C16.0862 28.0597 16.2071 28.0597 16.0862 28.0597C16.8119 28.0597 17.2957 27.5759 17.2957 26.8502C17.4166 22.4961 19.1099 18.3839 21.8917 14.9973C22.3755 14.5136 22.2545 13.7879 21.7707 13.3041C21.287 12.8203 20.4403 12.9412 20.0775 13.425C16.9328 17.1744 14.9977 21.8914 14.8767 26.7293C14.9977 27.5759 15.4814 28.0597 16.0862 28.0597Z" fill="white"/>
<path d="M5.20093 25.0355C5.92662 25.0355 6.41041 24.5517 6.41041 23.8261C6.53136 21.0442 7.49895 18.3834 9.31317 16.2063C9.79696 15.7225 9.67601 14.9969 9.19222 14.5131C8.70843 14.0293 7.86179 14.1502 7.49895 14.634C5.32188 17.1739 3.99146 20.4395 3.99146 23.7051C3.99146 24.4308 4.59619 24.9146 5.20093 25.0355Z" fill="white"/>
<path d="M52.3707 50.556C50.7984 50.556 49.347 51.1607 48.2585 52.0073C47.4118 51.0398 46.2023 50.435 44.8719 50.1931C44.8719 42.0896 38.3407 40.1544 38.2198 40.1544C37.615 39.9125 36.8894 40.3963 36.7684 41.0011C36.5265 41.6058 37.0103 42.3315 37.615 42.4524C37.8569 42.5734 42.453 44.0248 42.453 50.1931C41.1225 50.435 39.9131 51.0398 39.0664 52.0073C37.9779 51.0398 36.5265 50.556 34.9542 50.556C31.4467 50.556 28.5439 53.4587 28.5439 56.9662C28.5439 59.869 30.4791 62.2879 33.14 63.1345C33.019 63.7393 32.8981 64.2231 32.8981 64.8278C32.8981 67.6096 34.7123 70.0286 37.3731 70.8752C36.6475 74.9874 39.7921 78.4949 43.6624 78.4949C47.5328 78.4949 50.6774 75.1084 49.9517 70.9962C53.3383 70.1495 55.5153 66.5211 54.4268 63.0136C56.9667 62.167 58.7809 59.748 58.7809 56.9662C58.7809 53.3378 55.9991 50.556 52.3707 50.556ZM43.6624 52.4911C46.5652 52.4911 48.6213 55.6358 47.2909 58.2966C46.2023 60.5946 43.7834 60.4737 43.5415 60.4737C38.4617 60.3527 38.4617 52.4911 43.6624 52.4911ZM30.9629 56.9662C30.9629 54.7891 32.7771 52.9749 34.9542 52.9749C36.0427 52.9749 37.0103 53.3378 37.736 54.0635C37.0103 55.8777 37.1313 57.9338 37.9779 59.5061C35.6799 62.4089 30.9629 60.5946 30.9629 56.9662ZM35.6799 63.3764C37.1313 63.2555 38.5826 62.5298 39.5502 61.4413C40.3968 62.167 41.6063 62.7717 42.8158 62.8927C44.3881 65.4326 42.453 69.1819 38.9455 68.8191C36.2846 68.5772 34.5913 65.7954 35.6799 63.3764ZM43.6624 76.076C41.1225 76.076 39.1874 73.778 39.7921 71.2381C41.2435 71.1171 42.8158 70.5124 43.9043 69.4238C44.8719 70.3914 46.2024 70.9962 47.6537 71.2381C48.1375 73.657 46.2023 76.076 43.6624 76.076ZM48.3794 68.8191C47.1699 68.6982 46.0814 68.4563 45.2348 67.3677C45.7186 66.0373 45.9605 64.344 45.3557 62.6508C46.6861 62.2879 47.6537 61.4413 47.7747 61.4413C48.8632 62.6508 50.5565 63.3764 52.1288 63.3764C53.0964 65.9164 51.1612 68.8191 48.3794 68.8191ZM49.347 59.5061C50.6774 56.9662 49.7098 54.5472 49.5889 54.0635C50.3146 53.3378 51.2822 52.9749 52.3707 52.9749C54.5478 52.9749 56.362 54.7891 56.362 56.9662C56.362 60.5946 51.766 62.4089 49.347 59.5061Z" fill="white"/>
</svg>
