<svg width="600" height="346" viewBox="0 0 600 346" fill="none" xmlns="http://www.w3.org/2000/svg">
<path d="M2.35088 196.816L107.471 49.36H134.831V195.952C141.743 195.76 147.407 195.28 151.823 194.512C156.239 193.552 159.695 192.112 162.191 190.192C164.687 188.08 166.415 185.296 167.375 181.84C168.335 178.384 168.815 173.872 168.815 168.304H179.471V238.288H168.815C168.815 233.104 168.335 228.88 167.375 225.616C166.415 222.352 164.687 219.856 162.191 218.128C159.695 216.208 156.239 214.96 151.823 214.384C147.407 213.616 141.743 213.136 134.831 212.944V221.872C134.831 228.592 135.119 234.448 135.695 239.44C136.463 244.432 137.807 248.656 139.727 252.112C141.647 255.376 144.335 257.872 147.791 259.6C151.439 261.328 156.047 262.288 161.615 262.48V274H62.8309V262.48C69.5509 262.288 74.9269 261.328 78.9589 259.6C83.1829 257.68 86.3509 255.088 88.4629 251.824C90.7669 248.56 92.3029 244.624 93.0709 240.016C93.8389 235.408 94.2229 230.032 94.2229 223.888V214.096H2.35088V196.816ZM94.2229 102.64H93.0709L26.8309 195.952H94.2229V102.64ZM299.297 49.36C312.545 49.36 324.929 52.336 336.449 58.288C348.161 64.24 358.337 72.4 366.977 82.768C375.617 93.136 382.433 105.328 387.425 119.344C392.609 133.36 395.201 148.528 395.201 164.848C395.201 180.4 392.609 194.992 387.425 208.624C382.433 222.256 375.617 234.16 366.977 244.336C358.337 254.32 348.161 262.288 336.449 268.24C324.929 274 312.545 276.88 299.297 276.88C286.241 276.88 273.953 274 262.433 268.24C251.105 262.288 241.121 254.32 232.481 244.336C224.033 234.16 217.313 222.256 212.321 208.624C207.329 194.992 204.833 180.4 204.833 164.848C204.833 148.528 207.329 133.36 212.321 119.344C217.313 105.328 224.033 93.136 232.481 82.768C241.121 72.4 251.105 64.24 262.433 58.288C273.953 52.336 286.241 49.36 299.297 49.36ZM299.297 260.176C306.209 260.176 312.353 258.736 317.729 255.856C323.297 252.784 328.001 247.6 331.841 240.304C335.681 233.008 338.561 223.312 340.481 211.216C342.593 199.12 343.649 183.952 343.649 165.712C343.649 146.704 342.593 130.864 340.481 118.192C338.561 105.328 335.681 95.056 331.841 87.376C328.001 79.696 323.297 74.224 317.729 70.96C312.353 67.696 306.209 66.064 299.297 66.064C292.385 66.064 286.145 67.696 280.577 70.96C275.201 74.224 270.593 79.696 266.753 87.376C262.913 95.056 259.937 105.328 257.825 118.192C255.905 130.864 254.945 146.704 254.945 165.712C254.945 183.952 255.905 199.12 257.825 211.216C259.937 223.312 262.913 233.008 266.753 240.304C270.593 247.6 275.201 252.784 280.577 255.856C286.145 258.736 292.385 260.176 299.297 260.176ZM411.007 196.816L516.127 49.36H543.487V195.952C550.399 195.76 556.063 195.28 560.479 194.512C564.895 193.552 568.351 192.112 570.847 190.192C573.343 188.08 575.071 185.296 576.031 181.84C576.991 178.384 577.471 173.872 577.471 168.304H588.127V238.288H577.471C577.471 233.104 576.991 228.88 576.031 225.616C575.071 222.352 573.343 219.856 570.847 218.128C568.351 216.208 564.895 214.96 560.479 214.384C556.063 213.616 550.399 213.136 543.487 212.944V221.872C543.487 228.592 543.775 234.448 544.351 239.44C545.119 244.432 546.463 248.656 548.383 252.112C550.303 255.376 552.991 257.872 556.447 259.6C560.095 261.328 564.703 262.288 570.271 262.48V274H471.487V262.48C478.207 262.288 483.583 261.328 487.615 259.6C491.839 257.68 495.007 255.088 497.119 251.824C499.423 248.56 500.959 244.624 501.727 240.016C502.495 235.408 502.879 230.032 502.879 223.888V214.096H411.007V196.816ZM502.879 102.64H501.727L435.487 195.952H502.879V102.64Z" fill="#C39154"/>
<path d="M306.715 145.147L303.976 123.232C304.742 123.128 305.341 122.499 305.341 121.705C305.341 121.099 304.987 120.589 304.485 120.328L305.078 119.438C305.399 118.957 305.428 118.338 305.156 117.828C304.883 117.319 304.352 117 303.773 117H291.227C290.648 117 290.117 117.319 289.844 117.828C289.572 118.338 289.601 118.957 289.923 119.438L290.515 120.328C290.013 120.589 289.659 121.098 289.659 121.705C289.659 122.499 290.258 123.128 291.024 123.232L288.285 145.147C284.385 148.003 281.818 152.58 281.818 157.773V181.294C281.818 181.873 282.137 182.404 282.647 182.677C283.155 182.949 283.775 182.92 284.256 182.599L292.361 177.197L297.762 185.302C298.055 185.74 298.545 186 299.067 186C299.099 186 299.131 185.999 299.163 185.997C299.722 185.962 300.218 185.634 300.469 185.133L302.633 180.807L307.367 185.541C307.661 185.835 308.059 186 308.476 186C308.892 186 309.291 185.835 309.585 185.541L312.723 182.403C313.017 182.109 313.182 181.71 313.182 181.294V157.773C313.182 152.58 310.615 148.003 306.715 145.147ZM294.18 123.273H300.82L303.316 143.238C301.514 142.514 299.558 142.091 297.5 142.091C295.442 142.091 293.486 142.514 291.684 143.238L294.18 123.273ZM310.046 180.645L308.476 182.214L303.313 177.05C303.018 176.753 302.616 176.591 302.205 176.591C302.122 176.591 302.038 176.597 301.953 176.611C301.456 176.692 301.027 177.007 300.802 177.458L298.874 181.314L294.1 174.153C293.618 173.433 292.648 173.237 291.926 173.718L284.954 178.364V157.773C284.954 150.855 290.582 145.227 297.5 145.227C304.417 145.227 310.046 150.855 310.046 157.773V180.645Z" fill="#C39154"/>
<path fill-rule="evenodd" clip-rule="evenodd" d="M272.447 178.894C272.694 178.4 273.295 178.2 273.789 178.447L278 180.553C278.494 180.8 278.694 181.4 278.447 181.894C278.2 182.388 277.6 182.589 277.106 182.342L272.894 180.236C272.4 179.989 272.2 179.388 272.447 178.894Z" fill="#C39154"/>
<path fill-rule="evenodd" clip-rule="evenodd" d="M321.351 177.995C320.946 177.619 320.313 177.642 319.937 178.047L316.734 181.498C316.358 181.903 316.382 182.535 316.787 182.911C317.192 183.287 317.824 183.263 318.2 182.858L321.403 179.408C321.779 179.003 321.755 178.37 321.351 177.995Z" fill="#C39154"/>
<path fill-rule="evenodd" clip-rule="evenodd" d="M274.447 193.895C274.694 194.389 275.295 194.589 275.789 194.342L280 192.236C280.494 191.989 280.694 191.389 280.447 190.895C280.2 190.401 279.6 190.2 279.106 190.447L274.894 192.553C274.4 192.8 274.2 193.401 274.447 193.895Z" fill="#C39154"/>
<path fill-rule="evenodd" clip-rule="evenodd" d="M324.747 192.741C324.689 193.29 324.197 193.689 323.648 193.631L318.966 193.139C318.416 193.081 318.018 192.589 318.076 192.04C318.133 191.491 318.625 191.092 319.175 191.15L323.857 191.642C324.406 191.7 324.805 192.192 324.747 192.741Z" fill="#C39154"/>
<path fill-rule="evenodd" clip-rule="evenodd" d="M272.841 186.118C273.013 185.75 273.405 185.536 273.807 185.59L279.97 186.418C280.592 186.501 280.954 187.165 280.688 187.733C280.516 188.102 280.125 188.315 279.722 188.261L273.56 187.433C272.938 187.35 272.575 186.687 272.841 186.118Z" fill="#C39154"/>
<path fill-rule="evenodd" clip-rule="evenodd" d="M323.519 184.896C323.229 184.612 322.787 184.549 322.429 184.741L316.95 187.681C316.397 187.978 316.291 188.726 316.739 189.165C317.03 189.449 317.471 189.512 317.829 189.32L323.308 186.38C323.861 186.083 323.968 185.335 323.519 184.896Z" fill="#C39154"/>
<path d="M290.944 188.123L283.14 193.028C283.053 193.083 283 193.179 283 193.282V209.7C283 209.866 283.134 210 283.3 210H311.7C311.866 210 312 209.866 312 209.7V191.74C312 191.481 311.693 191.344 311.5 191.517L307.621 194.984C307.507 195.086 307.335 195.086 307.221 194.984L303.054 191.259C302.935 191.153 302.754 191.158 302.642 191.271L298.977 194.956C298.863 195.071 298.678 195.074 298.559 194.963L291.309 188.158C291.21 188.065 291.06 188.051 290.944 188.123Z" stroke="#C39154" stroke-width="2.5"/>
</svg>
