<svg width="15" height="17" viewBox="0 0 15 17" fill="none" xmlns="http://www.w3.org/2000/svg">
<path fill-rule="evenodd" clip-rule="evenodd" d="M9.76094 3.80742C9.88154 3.80562 10.0016 3.81089 10.1228 3.8234C11.3789 3.87562 12.6586 4.39066 13.542 5.67816C13.8141 6.07458 13.7131 6.61638 13.3165 6.8883C13.3095 6.8931 13.3025 6.89779 13.2953 6.90239C13.2568 6.9263 13.2407 6.93638 13.2176 6.95159C13.1761 6.97898 13.1309 7.01098 13.0819 7.04844C12.9417 7.1557 12.8021 7.28366 12.6724 7.43186C12.2916 7.867 12.0724 8.38184 12.0786 9.00053C12.0851 9.73967 12.3542 10.2957 12.8111 10.7281C12.9747 10.883 13.1516 11.0104 13.3276 11.1107C13.4311 11.1697 13.5034 11.2031 13.5775 11.2329C13.9836 11.4177 14.1843 11.8795 14.0422 12.3023C14.0321 12.3362 14.0059 12.4177 13.971 12.5177C13.9134 12.6826 13.8449 12.8609 13.7639 13.0514C13.5357 13.588 13.2498 14.1257 12.8976 14.6384C11.8244 16.1998 11.154 16.8242 9.90541 16.8473C9.37225 16.8573 8.9964 16.7586 8.46383 16.531C8.40373 16.5052 8.40373 16.5052 8.34708 16.4808C7.94657 16.3085 7.75045 16.2553 7.41771 16.2553C7.05957 16.2553 6.84844 16.3118 6.42105 16.4928C6.36439 16.5168 6.36439 16.5168 6.30462 16.5421C5.81096 16.7501 5.47134 16.8468 4.99732 16.8656C3.7502 16.9117 3.0059 16.2173 1.88734 14.6059C0.169844 12.1362 -0.469712 8.5283 0.899462 6.16212C1.70789 4.76172 3.16147 3.88096 4.73445 3.85767C4.97267 3.85336 5.19571 3.87352 5.42646 3.91881C5.56055 3.13266 5.98684 2.36792 6.57732 1.77054C7.36377 0.965787 8.63456 0.324219 9.73532 0.324219H9.87348C10.2781 0.324219 10.606 0.652197 10.606 1.05678C10.6039 2.03119 10.3548 2.99959 9.76094 3.80742ZM8.8377 2.18994C8.4189 2.35981 8.01725 2.61125 7.7365 2.89852C7.47188 3.16623 7.26375 3.48422 7.13794 3.8018C7.55631 3.6573 7.95827 3.4039 8.26112 3.08415C8.51849 2.81123 8.71493 2.50377 8.8377 2.18994ZM11.3617 6.28564C11.4243 6.2141 11.4881 6.14566 11.5529 6.0802C11.1003 5.73881 10.5587 5.58339 9.99918 5.55908C9.64057 5.52292 9.24996 5.61149 8.65151 5.84068C8.79155 5.78706 8.14691 6.03848 7.99713 6.09038C7.70258 6.19246 7.46656 6.24705 7.22016 6.24705C6.97295 6.24705 6.73342 6.1953 6.45068 6.10019C6.35394 6.06766 6.25466 6.03093 6.13001 5.98244C6.07637 5.96157 5.87362 5.88143 5.82646 5.86305C5.33484 5.67138 5.03752 5.59331 4.76303 5.59827C3.80954 5.61239 2.91412 6.15494 2.40723 7.033C1.42958 8.72257 1.94713 11.6422 3.31754 13.6129C4.0822 14.7144 4.53897 15.1405 4.93051 15.1261C5.15045 15.1173 5.31056 15.0717 5.62835 14.9379C5.68324 14.9147 5.68324 14.9147 5.74168 14.8899C6.36497 14.6259 6.7815 14.5145 7.41764 14.5145C8.03221 14.5145 8.43651 14.6242 9.03516 14.8816C9.09376 14.9069 9.09376 14.9069 9.14841 14.9303C9.4746 15.0697 9.63276 15.1113 9.87295 15.1068C10.3333 15.0983 10.7092 14.7481 11.4622 13.6526C11.7332 13.2582 11.9585 12.8386 12.1403 12.419C11.9603 12.2947 11.7835 12.153 11.6137 11.9922C10.8298 11.2502 10.3481 10.2553 10.3372 9.01738C10.3265 7.93817 10.7162 7.0233 11.3617 6.28564Z" fill="white"/>
</svg>
