<svg width="31" height="31" viewBox="0 0 31 31" fill="none" xmlns="http://www.w3.org/2000/svg">
<rect opacity="0.3" width="31" height="31" rx="15.5" fill="#F2C94C"/>
<path d="M21.1621 16.8279H20.4021V10.2919L21.2001 10.2539H24.2781C24.6581 10.2539 24.9621 10.5579 25.0001 10.9379V11.0139V12.9899C24.9621 15.1179 23.2521 16.8279 21.1621 16.8279ZM21.9221 11.7739V15.1939C22.7961 14.8899 23.4421 14.0159 23.4421 13.0279V11.7739H21.9221Z" fill="#C39154"/>
<path d="M10.56 16.8279H9.8C7.71 16.8279 6 15.1179 6 13.0279V10.9759C6 10.5959 6.304 10.2919 6.684 10.2539H6.76H10.522L10.56 11.0519V16.8279ZM7.482 11.7739V13.0279C7.482 14.0159 8.128 14.8899 9.002 15.1939V11.7739H7.482Z" fill="#C39154"/>
<path d="M15.538 24.352H15.386C15.006 24.352 14.702 24.048 14.702 23.668V21.084H16.222V23.668C16.222 24.048 15.918 24.352 15.538 24.352Z" fill="#C39154"/>
<path d="M15.804 12.762L16.298 13.75C16.336 13.864 16.45 13.94 16.602 13.978L17.704 14.13C18.008 14.168 18.16 14.548 17.932 14.776L17.134 15.536C17.058 15.612 17.02 15.764 17.02 15.878L17.21 16.942C17.248 17.246 16.944 17.512 16.64 17.36L15.652 16.866C15.538 16.79 15.424 16.79 15.31 16.866L14.322 17.36C14.056 17.512 13.714 17.284 13.752 16.942L13.942 15.878C13.98 15.764 13.904 15.612 13.828 15.536L13.03 14.776C12.802 14.548 12.916 14.168 13.258 14.13L14.36 13.978C14.474 13.978 14.588 13.864 14.664 13.75L15.158 12.762C15.272 12.496 15.69 12.496 15.804 12.762Z" fill="#C39154"/>
<path d="M15.576 21.882C11.966 21.958 9.00195 18.88 9.00195 15.27V9.72201C9.00195 9.34201 9.30596 9.038 9.68596 9H9.76195H21.162C21.542 9 21.846 9.304 21.884 9.684V9.76V15.422C21.922 18.956 19.072 21.806 15.576 21.882ZM10.56 10.482V15.422C10.56 18.12 12.764 20.362 15.5 20.362C18.236 20.362 20.44 18.158 20.44 15.422V10.482H10.56Z" fill="#C39154"/>
</svg>
