<svg width="53" height="53" viewBox="0 0 53 53" fill="none" xmlns="http://www.w3.org/2000/svg">
<rect y="0.494141" width="52.1896" height="52.1896" rx="26.0948" fill="#DC4E42"/>
<path fill-rule="evenodd" clip-rule="evenodd" d="M34.6378 24.8526H26.2785C26.2785 25.7219 26.2785 27.4606 26.2732 28.33H31.1172C30.9316 29.1993 30.2734 30.4164 29.3435 31.0292L29.34 31.0336C28.1037 31.8499 26.4722 32.0351 25.2607 31.7917C23.3619 31.4144 21.8591 30.0373 21.249 28.2882C21.2525 28.2856 21.2552 28.2613 21.2578 28.2595C20.8759 27.1746 20.8759 25.7219 21.2578 24.8526C21.7499 23.2548 23.297 21.7969 25.1986 21.3979C26.7279 21.0736 28.4536 21.4248 29.7228 22.6123C29.8915 22.4471 32.0586 20.3312 32.2211 20.159C27.8852 16.2323 20.9426 17.6136 18.3447 22.6845C18.3447 22.6845 18.3447 22.6845 18.3394 22.694C17.0542 25.1847 17.1075 28.1196 18.3483 30.4911C18.3447 30.4937 18.3421 30.4955 18.3394 30.4981C19.4638 32.6801 21.5101 34.3536 23.9756 34.9908C26.5947 35.6776 29.9279 35.2082 32.1607 33.1887L32.1634 33.1913C34.0552 31.4874 35.2329 28.5847 34.6378 24.8526Z" fill="white"/>
</svg>
