<svg width="50" height="50" viewBox="0 0 50 50" fill="none" xmlns="http://www.w3.org/2000/svg">
<rect opacity="0.2" x="0.625" y="0.625" width="48.75" height="48.75" rx="3" fill="#BDBDBD"/>
<path d="M16.8678 21.3906L13.4713 24.7871C12.0784 26.18 11.2959 28.0692 11.2959 30.0391C11.2959 32.0089 12.0784 33.8981 13.4713 35.291C14.8642 36.6839 16.7534 37.4664 18.7233 37.4664C20.6932 37.4664 22.5823 36.6839 23.9752 35.291L28.5006 30.7632C29.3406 29.9231 29.9667 28.8938 30.3266 27.7616C30.6864 26.6295 30.7694 25.4275 30.5686 24.2567C30.3678 23.0858 29.8891 21.9802 29.1726 21.0326C28.4561 20.0851 27.5227 19.3232 26.4508 18.811L25.0001 20.2617C24.8528 20.4093 24.7247 20.5748 24.6189 20.7544C25.447 20.9924 26.1987 21.4425 26.7996 22.0601C27.4005 22.6777 27.8298 23.4415 28.0451 24.2758C28.2604 25.1102 28.2542 25.9863 28.0271 26.8175C27.8 27.6488 27.36 28.4064 26.7504 29.0154L22.2275 33.5408C21.2984 34.4698 20.0384 34.9917 18.7245 34.9917C17.4107 34.9917 16.1506 34.4698 15.2216 33.5408C14.2925 32.6117 13.7706 31.3517 13.7706 30.0378C13.7706 28.724 14.2925 27.4639 15.2216 26.5349L17.1847 24.5742C16.9077 23.5363 16.8007 22.4603 16.8678 21.3881V21.3906Z" fill="#BDBDBD"/>
<path d="M19.336 22.4254L19.7494 22.0119C20.3627 21.3963 21.128 20.9539 21.9675 20.7296C22.1918 19.89 22.6343 19.1248 23.2499 18.5115L23.6633 18.098C22.418 18.028 21.1751 18.2723 20.0489 18.8085C19.5043 19.9473 19.2666 21.1925 19.336 22.4229V22.4254Z" fill="#BDBDBD"/>
<path d="M21.5001 16.7609C20.6601 17.6009 20.0339 18.6302 19.6741 19.7624C19.3143 20.8945 19.2313 22.0965 19.4321 23.2674C19.6329 24.4382 20.1116 25.5438 20.8281 26.4914C21.5446 27.4389 22.478 28.2008 23.5499 28.713L25.4684 26.7919C24.6291 26.5668 23.8638 26.1247 23.2494 25.5101C22.635 24.8955 22.1933 24.13 21.9685 23.2905C21.7437 22.4511 21.7438 21.5672 21.9688 20.7279C22.1938 19.8885 22.6358 19.1231 23.2503 18.5086L27.7732 13.9833C28.7022 13.0542 29.9623 12.5323 31.2762 12.5323C32.59 12.5323 33.8501 13.0542 34.7791 13.9833C35.7082 14.9123 36.2301 16.1723 36.2301 17.4862C36.2301 18.8001 35.7082 20.0601 34.7791 20.9892L32.816 22.9498C33.0932 23.9896 33.1997 25.0665 33.1328 26.1359L36.5294 22.7394C37.9223 21.3465 38.7048 19.4573 38.7048 17.4874C38.7048 15.5176 37.9223 13.6284 36.5294 12.2355C35.1364 10.8426 33.2473 10.0601 31.2774 10.0601C29.3075 10.0601 27.4183 10.8426 26.0254 12.2355L21.5001 16.7609Z" fill="#BDBDBD"/>
<path d="M29.9513 28.7135C30.4897 27.588 30.735 26.3447 30.6642 25.0991L30.2508 25.5125C29.6375 26.1281 28.8722 26.5706 28.0327 26.7949C27.8084 27.6344 27.3659 28.3997 26.7503 29.013L26.3369 29.4264C27.5822 29.4965 28.8251 29.2521 29.9513 28.716V28.7135Z" fill="#BDBDBD"/>
</svg>
