<svg width="60" height="62" viewBox="0 0 60 62" fill="none" xmlns="http://www.w3.org/2000/svg">
<path d="M56.3709 0H6.91938C5.26748 0 3.92256 1.20175 3.92256 2.67882V29.7176C3.92256 31.1947 5.26748 32.3964 6.91938 32.3964H25.4839V34.6478C20.9722 35.0959 19.8441 37.147 18.7235 40.1445C18.493 40.3317 17.5135 40.3379 17.1398 40.3407C17.0193 40.3413 16.9037 40.342 16.7991 40.3441L14.5855 40.3861V38.5077C14.5855 37.1057 13.443 35.9659 12.0403 35.9659H2.5453C1.14118 35.9659 0 37.1057 0 38.5077V59.2817C0 60.6851 1.14118 61.827 2.5453 61.827H12.0403C13.443 61.827 14.5855 60.6851 14.5855 59.2817V57.2155C14.6083 57.2155 14.6358 57.2155 14.6578 57.2155C15.3771 57.2155 15.6304 57.2402 15.788 57.327C16.0392 57.4646 16.4481 57.9093 17.0668 58.5824L17.1116 58.6306C18.9514 60.6307 21.697 61.8249 24.457 61.8249C24.5575 61.8249 24.658 61.8236 24.7578 61.8201L36.9605 61.4574C37.0059 61.456 37.0506 61.4519 37.0947 61.4457C40.1452 61.0114 42.1178 58.1612 42.2452 54.0073C42.3167 51.7229 42.8543 50.3704 43.3292 49.1762C43.7167 48.2009 44.0829 47.28 43.9982 46.1849C43.9294 45.2908 43.7835 44.5186 43.6451 43.7704C43.4256 42.5934 43.2349 41.5761 43.3657 40.2705C43.5316 38.6096 43.2012 37.3026 42.3849 36.3857C41.0482 34.8846 38.8244 34.8481 37.0362 34.8185C36.9852 34.8178 36.9391 34.8164 36.8882 34.8158V32.3964H56.3696C58.0221 32.3964 59.3671 31.1947 59.3671 29.7176V2.67882C59.3684 1.20244 58.0235 0 56.3709 0ZM12.1724 59.2824C12.1724 59.3512 12.1098 59.4145 12.0409 59.4145H2.5453C2.47647 59.4145 2.41383 59.3512 2.41383 59.2824V38.5084C2.41383 38.441 2.47647 38.3797 2.5453 38.3797H12.0403C12.1091 38.3797 12.1717 38.441 12.1717 38.5084V41.6168V56.011V59.2824H12.1724ZM40.5836 37.9908C40.9333 38.3832 41.0613 39.0694 40.9656 40.0302C40.8004 41.6794 41.0406 42.9685 41.2733 44.2137C41.4075 44.9302 41.5342 45.6061 41.5927 46.3708C41.634 46.909 41.4048 47.4858 41.0868 48.2849C40.594 49.5259 39.9181 51.2246 39.8341 53.933C39.7439 56.8465 38.6179 58.7517 36.8159 59.047L24.6855 59.4077C22.1127 59.4854 19.9941 58.1997 18.888 56.9973L18.8433 56.9491C17.1825 55.1423 16.8018 54.8016 14.6578 54.8016C14.6344 54.8016 14.6096 54.8016 14.5855 54.8016V42.8006L16.848 42.7579C16.9443 42.7559 17.0476 42.7552 17.1556 42.7545C18.2651 42.7476 20.3321 42.7345 20.9784 41.0049C21.9255 38.4685 22.4086 37.1759 26.5308 36.988C26.57 36.999 26.6203 37.0086 26.663 37.019C26.7394 37.0382 26.8185 37.0575 26.9025 37.0761C27.0044 37.0981 27.1097 37.1195 27.2205 37.1401C27.3148 37.1573 27.4091 37.1738 27.5089 37.1897C27.6266 37.2089 27.7498 37.2268 27.8757 37.244C27.9817 37.2585 28.087 37.273 28.1979 37.2867C28.3314 37.3025 28.4683 37.3177 28.6067 37.3321C28.7203 37.3438 28.8318 37.3562 28.9481 37.3666C29.0947 37.3803 29.2434 37.3913 29.3927 37.403C29.5063 37.412 29.6178 37.4209 29.7327 37.4292C29.8897 37.4402 30.048 37.4485 30.2063 37.4574C30.3157 37.4629 30.4252 37.4705 30.5339 37.4753C30.7074 37.4836 30.8774 37.4884 31.0481 37.4939C31.1382 37.4966 31.2298 37.5008 31.3186 37.5028C31.576 37.509 31.8279 37.5125 32.0688 37.5125C32.0715 37.5125 32.0743 37.5125 32.0757 37.5125C32.3482 37.5125 32.6483 37.5084 32.9615 37.498C33.0661 37.4953 33.1756 37.487 33.2829 37.4822C33.5018 37.4726 33.7186 37.4636 33.9423 37.4464C34.0758 37.4368 34.2046 37.4202 34.3374 37.4072C34.5398 37.3879 34.7414 37.3693 34.9397 37.3418C35.0752 37.3232 35.1978 37.297 35.3285 37.2736C35.4813 37.2475 35.641 37.2268 35.7856 37.1945C36.1751 37.2186 36.5771 37.2248 36.9997 37.2317C38.3825 37.2544 39.9518 37.2805 40.5836 37.9908ZM34.4757 34.9651C34.3271 34.9837 34.1832 35.0037 34.0187 35.0188C34.0008 35.0202 33.985 35.0229 33.9671 35.0243C33.7186 35.0463 33.4495 35.0615 33.1701 35.0732C33.104 35.0759 33.0352 35.0787 32.967 35.0814C32.6793 35.0918 32.382 35.098 32.0688 35.098C31.8017 35.098 31.5409 35.0931 31.2841 35.0869C31.2112 35.0849 31.1389 35.0828 31.0673 35.0807C30.8664 35.0746 30.6716 35.0663 30.4795 35.0567C30.4238 35.0539 30.3673 35.0518 30.313 35.0491C30.0789 35.0367 29.8518 35.0216 29.6336 35.005C29.5799 35.0009 29.5297 34.9961 29.476 34.992C29.306 34.9775 29.1422 34.9631 28.9853 34.9472C28.9295 34.9417 28.8731 34.9362 28.8201 34.9307C28.4677 34.8928 28.1614 34.8516 27.8978 34.8096V32.3964H34.4764V34.9651H34.4757ZM56.9553 29.7176C56.9553 29.7623 56.7591 29.9826 56.3716 29.9826H35.683H26.6905H6.91938C6.54151 29.9826 6.34397 29.772 6.3364 29.7176V2.67882C6.3364 2.63408 6.53256 2.41314 6.91938 2.41314H56.3709C56.7605 2.41314 56.9546 2.62789 56.9546 2.67882V29.7176H56.9553Z" fill="white"/>
<path d="M22.357 13.1898L19.2762 12.5952L17.7586 9.8482C17.5473 9.46345 17.1419 9.22461 16.7027 9.22461C16.2636 9.22461 15.8589 9.46345 15.6469 9.8482L14.1292 12.5952L11.0484 13.1898C10.6176 13.2731 10.2658 13.5835 10.1296 14.0013C9.99396 14.4191 10.0958 14.8775 10.3966 15.199L12.5406 17.491L12.1545 20.6034C12.1001 21.0391 12.2867 21.47 12.6425 21.7281C12.8524 21.8809 13.1016 21.9587 13.3521 21.958C13.5256 21.958 13.6997 21.9208 13.8635 21.8444L16.7034 20.516L19.546 21.8451C19.9439 22.0309 20.4112 21.9862 20.7664 21.7281C21.1215 21.47 21.3081 21.0398 21.2537 20.6034L20.8676 17.4903L23.0088 15.1983C23.3089 14.8775 23.4101 14.4191 23.2752 14.0013C23.1396 13.5842 22.7879 13.2731 22.357 13.1898ZM18.7201 16.2555C18.4758 16.517 18.3608 16.8729 18.4042 17.228L18.5914 18.7354L17.2141 18.0918C17.0524 18.0161 16.8775 17.9783 16.7027 17.9783C16.5286 17.9783 16.3544 18.0161 16.1913 18.0918L14.8175 18.734L15.0047 17.2274C15.0481 16.8722 14.9331 16.5164 14.6888 16.2541L13.6508 15.1453L15.1417 14.8576C15.4927 14.7894 15.7956 14.5699 15.969 14.256L16.7027 12.9269L17.4371 14.256C17.6092 14.5692 17.9127 14.7894 18.2645 14.8576L19.756 15.1453L18.7201 16.2555Z" fill="white"/>
<path d="M37.0218 12.9989L33.9396 12.4042L32.4233 9.66001C32.2106 9.27595 31.8059 9.03711 31.3668 9.03711C30.9277 9.03711 30.523 9.27595 30.311 9.66001L28.794 12.4042L25.7153 12.9989C25.2851 13.0822 24.9327 13.3926 24.7978 13.8104C24.6615 14.2275 24.7633 14.6859 25.0628 15.0073L27.204 17.2993L26.8179 20.4125C26.7642 20.8482 26.9514 21.2783 27.3066 21.5371C27.5165 21.6899 27.765 21.767 28.0155 21.767C28.1897 21.767 28.3645 21.7299 28.5269 21.6535L31.3668 20.3244L34.2101 21.6535C34.608 21.8393 35.0753 21.7946 35.4305 21.5365C35.7856 21.2783 35.9728 20.8482 35.9191 20.4125L35.533 17.2993L37.6743 15.0073C37.9744 14.6866 38.0756 14.2282 37.9393 13.8104C37.8044 13.3926 37.452 13.0822 37.0218 12.9989ZM33.3842 16.0639C33.1405 16.3254 33.0249 16.6813 33.0689 17.0364L33.2555 18.5438L31.8775 17.9002C31.7158 17.8245 31.5416 17.7866 31.3668 17.7866C31.192 17.7866 31.0171 17.8245 30.8547 17.9002L29.4816 18.5431L29.6674 17.0364C29.7121 16.6813 29.5958 16.3254 29.3522 16.0639L28.3149 14.9543L29.8044 14.6666C30.1561 14.5985 30.4583 14.3789 30.6317 14.0651L31.3661 12.7374L32.0998 14.0651C32.2733 14.3782 32.5761 14.5985 32.9271 14.6666L34.42 14.9543L33.3842 16.0639Z" fill="white"/>
<path d="M52.1028 12.9989L49.022 12.4042L47.5044 9.66001C47.2917 9.27595 46.887 9.03711 46.4485 9.03711C46.0087 9.03711 45.6047 9.27595 45.392 9.66001L43.875 12.4042L40.7942 12.9989C40.3627 13.0822 40.0103 13.3926 39.8754 13.8104C39.7405 14.2282 39.8416 14.6866 40.1417 15.0073L42.2858 17.2993L41.9003 20.4118C41.8459 20.8475 42.0332 21.2777 42.3876 21.5365C42.5976 21.6893 42.8467 21.7663 43.0966 21.7663C43.2707 21.7663 43.4455 21.7292 43.608 21.6528L46.4478 20.3244L49.287 21.6528C49.6849 21.8386 50.1522 21.7939 50.5074 21.5365C50.8625 21.279 51.0497 20.8482 50.9961 20.4125L50.6141 17.2993L52.7553 15.0066C53.0547 14.6859 53.1566 14.2275 53.021 13.8097C52.8854 13.3926 52.5337 13.0822 52.1028 12.9989ZM48.4659 16.0639C48.2216 16.3247 48.1066 16.6806 48.15 17.035L48.3351 18.5438L46.9592 17.9002C46.7975 17.8245 46.6227 17.7866 46.4478 17.7866C46.273 17.7866 46.0982 17.8245 45.9364 17.9002L44.5626 18.5431L44.7491 17.0364C44.7932 16.6813 44.6776 16.3247 44.4332 16.0632L43.3953 14.9543L44.8868 14.6666C45.2378 14.5985 45.5414 14.3789 45.7141 14.0651L46.4485 12.7374L47.1822 14.0651C47.3557 14.3782 47.6585 14.5985 48.0103 14.6666L49.5018 14.9543L48.4659 16.0639Z" fill="white"/>
</svg>
