<svg width="49" height="50" viewBox="0 0 49 50" fill="none" xmlns="http://www.w3.org/2000/svg">
<rect opacity="0.2" y="0.625" width="48.75" height="48.75" rx="3" fill="#BDBDBD"/>
<path d="M37.2861 18.6092C37.3013 18.891 37.3013 19.1728 37.3013 19.4394C37.2975 21.1739 37.0446 22.8988 36.5502 24.5612C35.5076 28.393 33.2183 31.7682 30.0438 34.154C26.8693 36.5398 22.9906 37.8001 19.02 37.7359C15.5254 37.7398 12.1041 36.7336 9.16797 34.8383C9.67693 34.901 10.1893 34.932 10.7021 34.9313C13.5943 34.9339 16.4031 33.9626 18.6757 32.1738C17.3372 32.1487 16.0399 31.7067 14.9645 30.9093C13.8891 30.1119 13.0893 28.9989 12.6764 27.7254C13.0751 27.7937 13.4786 27.8304 13.883 27.8351C14.4599 27.8373 15.0343 27.7583 15.5893 27.6005C14.2147 27.3279 12.9677 26.6117 12.0396 25.5617C11.1116 24.5118 10.5539 23.1862 10.4522 21.7886C10.4265 21.6279 10.4163 21.4652 10.4218 21.3026V21.2249C11.3143 21.7215 12.3136 21.9953 13.3346 22.0232C12.4551 21.4375 11.7343 20.6433 11.2364 19.7113C10.7385 18.7794 10.479 17.7386 10.4812 16.682C10.4802 15.5441 10.7775 14.4258 11.3434 13.4386C12.9568 15.4268 14.9709 17.0529 17.2545 18.211C19.5381 19.369 22.04 20.0331 24.5973 20.16C24.2747 18.7819 24.416 17.3359 24.9992 16.0464C25.5825 14.7568 26.5751 13.6958 27.8229 13.028C29.0708 12.3602 30.5042 12.123 31.9007 12.3531C33.2972 12.5833 34.5787 13.268 35.5463 14.3009C36.9887 14.0164 38.3718 13.4867 39.6352 12.7348C39.6894 13.8255 39.5075 14.915 39.1018 15.9288C38.6961 16.9427 38.0762 17.857 37.2845 18.6092H37.2861Z" fill="#BDBDBD"/>
</svg>
