<svg width="28" height="27" viewBox="0 0 28 27" fill="none" xmlns="http://www.w3.org/2000/svg">
<path fill-rule="evenodd" clip-rule="evenodd" d="M16.9552 6.36516C16.4412 6.36495 15.9336 6.47885 15.4691 6.69863C15.0045 6.91842 14.5945 7.23861 14.2687 7.6361C13.9429 8.03358 13.7094 8.49844 13.5851 8.99713C13.4608 9.49582 13.4487 10.0159 13.5498 10.5198C13.5846 10.6944 13.5775 10.8748 13.529 11.0461C13.4805 11.2174 13.3921 11.3747 13.271 11.5052C13.1498 11.6357 12.9995 11.7355 12.8322 11.7966C12.665 11.8576 12.4856 11.8781 12.3089 11.8563C9.88988 11.5591 7.60949 10.5647 5.74568 8.99429C5.78055 9.67154 6.01568 10.3915 6.5253 11.1453L7.28918 12.2748L6.0348 12.8092L5.79293 12.9127C5.97293 13.1185 6.18893 13.3289 6.4308 13.537C6.75415 13.8138 7.09621 14.0679 7.45455 14.2975L7.46693 14.3054H7.46805L9.20955 15.3618L7.38705 16.273C7.29705 16.318 7.20705 16.3585 7.11705 16.3945C7.50893 16.7202 7.94065 16.9946 8.4018 17.2113L9.96555 17.9504L8.65605 19.0799C7.94168 19.6964 7.2228 20.1565 6.29018 20.3995C7.72054 21.1614 9.31693 21.5583 10.9376 21.5549C16.3443 21.5549 20.6981 17.2405 20.6981 11.9542V11.3692L21.1762 11.0328C21.9232 10.5085 22.4508 9.79979 22.8288 8.98866H20.3988L20.0928 8.34741C19.811 7.75417 19.3668 7.25301 18.8116 6.90214C18.2564 6.55127 17.6131 6.36507 16.9563 6.36516H16.9552ZM4.26518 14.5777C4.15902 14.6992 4.08026 14.8422 4.03426 14.997C3.98825 15.1517 3.97607 15.3145 3.99855 15.4743C4.12568 16.3754 4.66455 17.1517 5.2608 17.7445C5.4228 17.9054 5.59605 18.0595 5.7783 18.2069L5.69393 18.2294C5.1528 18.3644 4.42268 18.3925 3.20655 18.2744C2.97689 18.2519 2.74586 18.3005 2.54478 18.4137C2.34369 18.5269 2.18228 18.6992 2.08244 18.9073C1.98259 19.1153 1.94914 19.349 1.98661 19.5767C2.02409 19.8044 2.13068 20.0151 2.29193 20.1802C3.4178 21.3309 4.76276 22.2446 6.24745 22.8671C7.73215 23.4897 9.3265 23.8085 10.9364 23.8049C17.3636 23.8049 22.6353 18.8144 22.9334 12.5167C24.3847 11.2983 25.1103 9.64791 25.5018 8.14829C25.5453 7.98185 25.5501 7.80764 25.5158 7.63906C25.4814 7.47048 25.4089 7.31203 25.3037 7.17589C25.1985 7.03974 25.0635 6.92953 24.9091 6.85374C24.7546 6.77794 24.5848 6.73857 24.4128 6.73866H21.7657C21.1182 5.73328 20.1719 4.95603 19.0599 4.51615C17.9479 4.07627 16.726 3.99586 15.566 4.28621C14.4059 4.57657 13.366 5.2231 12.5923 6.13496C11.8186 7.04682 11.3501 8.17817 11.2526 9.37004C9.17879 8.83021 7.3233 7.66095 5.94143 6.02316C5.81905 5.87847 5.6621 5.76703 5.48515 5.6992C5.3082 5.63136 5.11698 5.60933 4.92923 5.63514C4.74149 5.66095 4.56331 5.73377 4.41123 5.84684C4.25915 5.95991 4.13809 6.10956 4.0593 6.28191C3.37755 7.76916 3.24705 9.48366 4.00755 11.2274L3.7443 11.3399C3.49239 11.4473 3.28827 11.6428 3.17022 11.8899C3.05217 12.137 3.02829 12.4186 3.10305 12.682C3.3123 13.4155 3.78255 14.0635 4.26405 14.5777H4.26518Z" fill="#333333"/>
</svg>
